<mxfile host="app.diagrams.net" modified="2024-03-24T07:01:44.890Z" agent="Mozilla/5.0 (Windows NT 10.0; Win64; x64) AppleWebKit/537.36 (KHTML, like Gecko) Chrome/122.0.0.0 Safari/537.36" etag="8QV-Vm6AFdhHipeW1NLo" version="24.1.0" type="github">
  <diagram name="第 1 页" id="RIVABgKGVWVkQaULtAYW">
    <mxGraphModel dx="440" dy="234" grid="1" gridSize="1" guides="1" tooltips="1" connect="1" arrows="1" fold="1" page="1" pageScale="1" pageWidth="827" pageHeight="1169" math="0" shadow="0">
      <root>
        <mxCell id="0" />
        <mxCell id="1" parent="0" />
        <mxCell id="H04dgf4gUaKJfO17DssH-1" value="" style="endArrow=none;html=1;rounded=0;" edge="1" parent="1">
          <mxGeometry width="50" height="50" relative="1" as="geometry">
            <mxPoint x="241" y="384" as="sourcePoint" />
            <mxPoint x="496" y="144" as="targetPoint" />
          </mxGeometry>
        </mxCell>
        <mxCell id="H04dgf4gUaKJfO17DssH-2" value="" style="endArrow=none;html=1;rounded=0;" edge="1" parent="1">
          <mxGeometry width="50" height="50" relative="1" as="geometry">
            <mxPoint x="240" y="384" as="sourcePoint" />
            <mxPoint x="493" y="384" as="targetPoint" />
          </mxGeometry>
        </mxCell>
        <mxCell id="H04dgf4gUaKJfO17DssH-3" value="" style="endArrow=none;html=1;rounded=0;" edge="1" parent="1">
          <mxGeometry width="50" height="50" relative="1" as="geometry">
            <mxPoint x="544" y="384" as="sourcePoint" />
            <mxPoint x="544" y="96" as="targetPoint" />
          </mxGeometry>
        </mxCell>
        <mxCell id="H04dgf4gUaKJfO17DssH-4" value="A" style="text;html=1;align=center;verticalAlign=middle;whiteSpace=wrap;rounded=0;" vertex="1" parent="1">
          <mxGeometry x="210" y="378" width="60" height="30" as="geometry" />
        </mxCell>
        <mxCell id="H04dgf4gUaKJfO17DssH-5" value="B" style="text;html=1;align=center;verticalAlign=middle;whiteSpace=wrap;rounded=0;" vertex="1" parent="1">
          <mxGeometry x="514" y="379" width="60" height="30" as="geometry" />
        </mxCell>
        <mxCell id="H04dgf4gUaKJfO17DssH-6" value="C" style="text;html=1;align=center;verticalAlign=middle;whiteSpace=wrap;rounded=0;" vertex="1" parent="1">
          <mxGeometry x="524" y="79" width="60" height="30" as="geometry" />
        </mxCell>
        <mxCell id="H04dgf4gUaKJfO17DssH-7" value="D" style="text;html=1;align=center;verticalAlign=middle;whiteSpace=wrap;rounded=0;" vertex="1" parent="1">
          <mxGeometry x="435" y="379" width="60" height="30" as="geometry" />
        </mxCell>
        <mxCell id="H04dgf4gUaKJfO17DssH-8" value="E" style="text;html=1;align=center;verticalAlign=middle;whiteSpace=wrap;rounded=0;" vertex="1" parent="1">
          <mxGeometry x="429" y="144" width="60" height="30" as="geometry" />
        </mxCell>
        <mxCell id="H04dgf4gUaKJfO17DssH-9" value="F" style="text;html=1;align=center;verticalAlign=middle;whiteSpace=wrap;rounded=0;" vertex="1" parent="1">
          <mxGeometry x="341" y="378" width="60" height="30" as="geometry" />
        </mxCell>
        <mxCell id="H04dgf4gUaKJfO17DssH-10" value="G" style="text;html=1;align=center;verticalAlign=middle;whiteSpace=wrap;rounded=0;" vertex="1" parent="1">
          <mxGeometry x="338" y="230" width="60" height="30" as="geometry" />
        </mxCell>
        <mxCell id="H04dgf4gUaKJfO17DssH-11" value="H" style="text;html=1;align=center;verticalAlign=middle;whiteSpace=wrap;rounded=0;" vertex="1" parent="1">
          <mxGeometry x="274" y="379" width="60" height="30" as="geometry" />
        </mxCell>
        <mxCell id="H04dgf4gUaKJfO17DssH-12" value="I" style="text;html=1;align=center;verticalAlign=middle;whiteSpace=wrap;rounded=0;" vertex="1" parent="1">
          <mxGeometry x="274" y="297" width="60" height="30" as="geometry" />
        </mxCell>
        <mxCell id="H04dgf4gUaKJfO17DssH-13" value="J" style="text;html=1;align=center;verticalAlign=middle;whiteSpace=wrap;rounded=0;" vertex="1" parent="1">
          <mxGeometry x="242" y="379" width="60" height="30" as="geometry" />
        </mxCell>
        <mxCell id="H04dgf4gUaKJfO17DssH-14" value="" style="endArrow=none;html=1;rounded=0;" edge="1" parent="1">
          <mxGeometry width="50" height="50" relative="1" as="geometry">
            <mxPoint x="464.16999999999996" y="383.25" as="sourcePoint" />
            <mxPoint x="464" y="174" as="targetPoint" />
          </mxGeometry>
        </mxCell>
        <mxCell id="H04dgf4gUaKJfO17DssH-15" value="" style="endArrow=none;html=1;rounded=0;" edge="1" parent="1">
          <mxGeometry width="50" height="50" relative="1" as="geometry">
            <mxPoint x="369" y="384" as="sourcePoint" />
            <mxPoint x="368" y="264" as="targetPoint" />
          </mxGeometry>
        </mxCell>
        <mxCell id="H04dgf4gUaKJfO17DssH-18" value="" style="endArrow=none;html=1;rounded=0;" edge="1" parent="1">
          <mxGeometry width="50" height="50" relative="1" as="geometry">
            <mxPoint x="274" y="384" as="sourcePoint" />
            <mxPoint x="274" y="353" as="targetPoint" />
          </mxGeometry>
        </mxCell>
        <mxCell id="H04dgf4gUaKJfO17DssH-19" value="K" style="text;html=1;align=center;verticalAlign=middle;whiteSpace=wrap;rounded=0;" vertex="1" parent="1">
          <mxGeometry x="241" y="328" width="60" height="30" as="geometry" />
        </mxCell>
        <mxCell id="H04dgf4gUaKJfO17DssH-20" value="" style="endArrow=none;dashed=1;html=1;rounded=0;" edge="1" parent="1">
          <mxGeometry width="50" height="50" relative="1" as="geometry">
            <mxPoint x="495" y="145" as="sourcePoint" />
            <mxPoint x="545" y="95" as="targetPoint" />
          </mxGeometry>
        </mxCell>
        <mxCell id="H04dgf4gUaKJfO17DssH-21" value="" style="endArrow=none;html=1;rounded=0;" edge="1" parent="1">
          <mxGeometry width="50" height="50" relative="1" as="geometry">
            <mxPoint x="304" y="384" as="sourcePoint" />
            <mxPoint x="304" y="324" as="targetPoint" />
          </mxGeometry>
        </mxCell>
        <mxCell id="H04dgf4gUaKJfO17DssH-22" value="" style="endArrow=none;dashed=1;html=1;dashPattern=1 3;strokeWidth=2;rounded=0;" edge="1" parent="1">
          <mxGeometry width="50" height="50" relative="1" as="geometry">
            <mxPoint x="315" y="264" as="sourcePoint" />
            <mxPoint x="365" y="214" as="targetPoint" />
          </mxGeometry>
        </mxCell>
        <mxCell id="H04dgf4gUaKJfO17DssH-23" value="" style="endArrow=none;dashed=1;html=1;rounded=0;" edge="1" parent="1">
          <mxGeometry width="50" height="50" relative="1" as="geometry">
            <mxPoint x="494" y="384" as="sourcePoint" />
            <mxPoint x="544" y="384" as="targetPoint" />
          </mxGeometry>
        </mxCell>
      </root>
    </mxGraphModel>
  </diagram>
</mxfile>
